<svg version="1.1" id="Uploaded to svgrepo.com" xmlns="http://www.w3.org/2000/svg" xmlns:xlink="http://www.w3.org/1999/xlink" x="0px" y="0px"
	 width="154px" height="154px" viewBox="0 0 64 64" style="enable-background:new 0 0 64 64;" xml:space="preserve">
<style type="text/css">
	.fandom_een{fill:#FF786E;}
	.fandom_twee{fill:#BE5652;}
	.fandom_vijf{fill:#018273;}
	.fandom_zes{fill:#00B3AA;}
	.fandom_veertien{fill:#EFEAE0;}
	.fandom_vijftien{fill:#3A3A3A;}
	.fandom_zestien{fill:#4D4D4D;}
	.fandom_negentien{fill:#CCCCCC;}
	.st0{fill:#644638;}
	.st1{fill:#4B322A;}
	.st2{fill:#AA9991;}
	.st3{fill:#FFC865;}
	.st4{fill:#BE9148;}
	.st5{fill:#808080;}
	.st6{fill:#666666;}
	.st7{fill:#6BC4D2;}
	.st8{fill:#508D9B;}
	.st9{fill:#FFFAFA;}
	.st10{fill:#8579A3;}
	.st11{fill:#685683;}
</style>
<g>
	<g>
		<path class="fandom_zes" d="M32,7C18.193,7,7,18.193,7,32h50C57,18.193,45.807,7,32,7z"/>
		<path class="fandom_vijf" d="M32,57c13.807,0,25-11.193,25-25H7C7,45.807,18.193,57,32,57z"/>
	</g>
	<g>
		<path class="fandom_veertien" d="M58.548,23.222l-14.961-8.567c-0.479-0.274-1.09-0.108-1.365,0.371
			c-0.017,0.03-3.699-0.626-6.82-1.188c-0.006-0.641-0.537-1.051-1.088-1l-2.856,0.287c-0.427-0.077-0.691-0.161-1.072,0.09
			c0.04-0.027-13.192,1.199-13.24,1.204c-0.55,0.051-0.955,0.537-0.904,1.087l0.136,1.479L5.614,20.826
			c-0.52,0.186-0.791,0.758-0.605,1.278l8.562,23.955c0.186,0.52,0.758,0.791,1.278,0.605l16.076-5.756l4.801,0.865l9.186,5.26
			c0.479,0.274,1.09,0.108,1.365-0.371l12.641-22.076C59.193,24.108,59.027,23.497,58.548,23.222z"/>
		<path class="fandom_negentien" d="M41.763,15.828l-4.116,7.188l-0.204-0.311c-0.271-0.414-0.831-0.521-1.236-0.235l-1.381,0.975
			l4.5-7.859c0.274-0.479,0.885-0.645,1.365-0.371L41.763,15.828z M14.913,25.171c0.833-0.315,1.653-0.106,2.258,0.424l-0.792-8.611
			l-2.164,0.773L14.913,25.171z M29.951,38.467c-0.479-0.274-0.645-0.885-0.371-1.365c0,0,4.024-7.029,4.007-7.004
			c-0.723-0.002-1.514-0.35-1.971-1.049l-4.932,8.613c-0.274,0.479-0.108,1.09,0.371,1.365l1.789,1.024
			c-0.109,0.024-0.868,0.202-1.173,0.272l-1.424-0.257c-0.544-0.098-0.905-0.618-0.807-1.161l4.424-24.565l-1.441-0.26
			c-0.544-0.098-1.064,0.263-1.161,0.807l-1.305,7.247c0.074,0.047,0.154,0.083,0.215,0.155l1.863,2.214l-1.23,6.831
			c-0.353,0.333-0.939,0.322-1.272-0.079l-1.001-1.204l-1.778,9.872c-0.098,0.544,0.263,1.064,0.807,1.161l0.378,0.068
			c0.013,0.065,0.027,0.128,0.043,0.191l-4.32,0.398c-0.55,0.051-1.037-0.354-1.087-0.904l-0.477-5.185l-0.652,0.233
			c-0.634,0.227-1.275-0.318-1.155-0.98c0.253-1.387,0.286-1.569,0.286-1.569c-0.264,0.256-0.545,0.473-0.853,0.634l0.799,8.688
			c0.051,0.55,0.537,0.955,1.087,0.904l7.815-0.687l5.501-1.966l4.801,0.865L29.951,38.467z"/>
		<path class="fandom_vijftien" d="M37.646,23.016c-0.042,0.074-4.012,7.01-4.058,7.081c-1.6-0.005-2.736-1.48-2.191-3.039
			c0.372-1.064,1.083-1.888,1.94-2.564c2.622-1.85,3.451-2.79,4.106-1.79L37.646,23.016z M17.171,25.595
			c-1.987-1.743-4.848,0.808-3.346,2.983c0.256,0.37,0.577,0.696,0.904,1.085c-0.175,0.03-0.312,0.053-0.45,0.076
			c-1.123,0.188-1.938,1.192-1.874,2.31c0.068,1.19,0.981,2.125,2.132,2.187c0.792,0.043,1.462-0.341,2.039-0.901l-0.286,1.569
			c-0.121,0.662,0.521,1.207,1.155,0.98l0.652-0.233L17.171,25.595z"/>
		<path class="fandom_twee" d="M25.957,22.134c-0.407-0.257-0.964-0.161-1.217,0.289l-2.348,4.175
			c-0.178,0.316-0.142,0.709,0.09,0.988l3.051,3.67c0.333,0.4,0.919,0.412,1.272,0.079l1.23-6.831L25.957,22.134z"/>
		<path class="fandom_een" d="M41.618,25.029c1.233-2.061,5.006-1.785,5.057,1.612c0.002,0.154,0.019,0.496,0.019,0.496
			c0.002,0.028,0.428-0.212,0.452-0.226c2.971-1.684,5.093,1.458,3.95,3.545c-1.166,2.13-3.133,2.542-7.932,4.2
			c-0.5,0.173-1.037-0.134-1.143-0.652C41.016,29.054,40.366,27.121,41.618,25.029z M24.74,22.423l-2.348,4.175
			c-0.178,0.316-0.142,0.709,0.09,0.988l2.049,2.465l1.426-7.917C25.55,21.877,24.993,21.973,24.74,22.423z"/>
		<path class="fandom_zestien" d="M31.614,29.054c-0.372-0.567-0.462-1.293-0.216-1.995c0.372-1.064,1.083-1.888,1.94-2.564
			l1.489-1.05L31.614,29.054z M13.825,28.578c0.256,0.37,0.577,0.696,0.904,1.085c-0.175,0.03-0.312,0.053-0.45,0.076
			c-1.123,0.188-1.938,1.192-1.874,2.31c0.068,1.19,0.981,2.125,2.132,2.187c0.448,0.024,0.834-0.084,1.186-0.267l-0.81-8.799
			C13.52,25.697,12.973,27.344,13.825,28.578z"/>
	</g>
</g>
</svg>