<svg version="1.1" id="Uploaded to svgrepo.com" xmlns="http://www.w3.org/2000/svg" xmlns:xlink="http://www.w3.org/1999/xlink" x="0px" y="0px"
	 width="154px" height="154px" viewBox="0 0 64 64" style="enable-background:new 0 0 64 64;" xml:space="preserve">
<style type="text/css">
	.fandom_een{fill:#FF786E;}
	.fandom_twee{fill:#BE5652;}
	.fandom_drie{fill:#BE9148;}
	.fandom_vier{fill:#FFC865;}
	.fandom_zeven{fill:#508D9B;}
	.fandom_acht{fill:#6BC4D2;}
	.fandom_negen{fill:#685683;}
	.fandom_tien{fill:#8579A3;}
	.fandom_dertien{fill:#AA9991;}
	.fandom_veertien{fill:#EFEAE0;}
	.st0{fill:#644638;}
	.st1{fill:#4B322A;}
	.st2{fill:#808080;}
	.st3{fill:#666666;}
	.st4{fill:#CCCCCC;}
	.st5{fill:#018273;}
	.st6{fill:#3A3A3A;}
	.st7{fill:#FFFAFA;}
	.st8{fill:#4D4D4D;}
	.st9{fill:#00B3AA;}
</style>
<g>
	<g>
		<path class="fandom_tien" d="M32,7C18.193,7,7,18.193,7,32h50C57,18.193,45.807,7,32,7z"/>
		<path class="fandom_negen" d="M32,57c13.807,0,25-11.193,25-25H7C7,45.807,18.193,57,32,57z"/>
	</g>
	<g>
		<path class="fandom_vier" d="M28.236,20.611c-1.319-0.744-1.963-1.86-2.232-3.27c0.758-0.837,2.039-2.157,2.977-2.798
			c0.741-0.507,1.534-0.95,2.201-1.557c0.708-0.645,1.17-1.468,1.754-2.213c0.591-0.754,1.495-1.162,2.13-1.871
			c0.568-0.635,0.707-1.677,1.204-2.387c0.615-0.878,1.013-1.298,0.894-2.336c0.627,0.609,1.213,1.408,1.318,2.326
			C39.077,11.689,32.449,17.581,28.236,20.611z M54.556,40.249c-0.647-0.159-1.431,0.024-2.044-0.205
			c-0.685-0.256-1.23-0.783-1.935-0.996c-0.697-0.211-1.415-0.315-2.074-0.639c-0.622-0.306-1.16-0.745-1.731-1.131
			c-0.722-0.488-2.025-1.035-2.835-1.344c-0.933,0.57-1.551,1.324-1.714,2.454c3.347,2.152,9.418,5.234,12.96,3.417
			c0.627-0.322,1.034-0.95,1.294-1.555C55.769,40.613,55.351,40.445,54.556,40.249z M30.082,37.273
			c5.182,2.435,5.608,8.803,3.671,13.484c0.792,1.007,1.391,2.17,1.514,3.453C39.073,46.868,35.714,39.209,30.082,37.273z"/>
		<path class="fandom_drie" d="M36.269,6.514c-0.497,0.71-0.636,1.752-1.204,2.387c-0.635,0.71-1.538,1.117-2.13,1.871
			c-0.584,0.745-1.046,1.568-1.754,2.213c-0.667,0.608-1.459,1.05-2.201,1.557c-0.939,0.642-2.219,1.962-2.977,2.798
			c0.27,1.413,0.916,2.532,2.242,3.276c-5.942,4.237-10.105,4.773-11.851,4.072c-1.68-0.674-2.782-2.532-2.582-2.707
			c0.369,0.028,0.756-0.071,1.081-0.31c0.763-0.561,0.467-0.833,1.534-0.771c1.903,0.111,3.281-1.254,4.634-2.386
			c1.478-1.236,3.319-1.342,4.66-2.822c0.761-0.84,1.509-1.699,2.452-2.343c0.741-0.507,1.534-0.95,2.201-1.557
			c0.708-0.645,1.17-1.468,1.754-2.213c0.591-0.754,1.495-1.162,2.13-1.871c0.568-0.635,0.707-1.677,1.204-2.387
			c0.349-0.498,0.89-1.161,0.919-1.813c0.242,0.178,0.513,0.396,0.78,0.648C37.287,5.21,36.895,5.62,36.269,6.514z M55.182,39.36
			c-0.647-0.159-1.431,0.024-2.044-0.205c-0.685-0.256-1.23-0.783-1.935-0.996c-0.697-0.211-1.415-0.315-2.074-0.639
			c-0.622-0.306-1.16-0.745-1.731-1.131c-0.725-0.491-1.549-0.786-2.363-1.096c-1.434-0.546-2.026-1.815-3.324-2.523
			c-1.189-0.649-2.551-1.252-3.005-2.622c-0.259-0.783-0.37-0.489-0.981-0.873c-0.262-0.165-0.441-0.411-0.524-0.678
			C37.019,28.5,36,29.781,35.989,31.143c-0.012,1.419,1.537,4.208,6.232,7.253c0.161-1.135,0.78-1.891,1.715-2.462
			c0.811,0.308,2.114,0.855,2.835,1.344c0.57,0.386,1.109,0.825,1.731,1.131c0.659,0.325,1.378,0.428,2.074,0.639
			c0.705,0.213,1.25,0.74,1.935,0.996c0.613,0.229,1.398,0.046,2.044,0.205c0.809,0.199,1.22,0.364,1.935-0.007
			c0.106-0.256,0.186-0.506,0.245-0.725C56.262,39.674,55.636,39.471,55.182,39.36z M33.752,50.759
			c-1.485,3.588-4.499,5.782-9.233,6.114c-5.607,0.393-12.409-0.997-13.234-9.14c0.471,4.647,1.841,14.142,15.424,12.393
			c6.102-0.786,8.555-5.929,8.555-5.929C35.137,52.919,34.541,51.762,33.752,50.759z M28.011,45.406
			c-0.415-2.064-2.936-3.298-5.631-2.756c-1.39,0.279-2.555,0.976-3.3,1.869c-0.235,1.517-0.229,3.008,0.057,4.428
			c0.065,0.064,0.132,0.126,0.201,0.185c0.55-3.401,5.918-5.023,8.67-2.658C28.064,46.122,28.083,45.764,28.011,45.406z"/>
		<path class="fandom_veertien" d="M33.527,4.854L31.23,5.456c-1.28,0.335-1.788-1.599-0.507-1.935l2.298-0.602
			C34.3,2.584,34.809,4.519,33.527,4.854z M28.004,9.009l-0.962,2.171c-0.544,1.228,1.305,1.991,1.828,0.81l0.962-2.171
			C30.361,8.629,28.555,7.768,28.004,9.009z M52.225,30.604l-2.044-1.209c-1.14-0.674-2.157,1.048-1.018,1.721l2.044,1.209
			C52.347,33,53.363,31.278,52.225,30.604z M27.766,54.147l1.685-1.673c0.94-0.934-0.469-2.353-1.409-1.419l-1.685,1.673
			C25.417,53.661,26.826,55.081,27.766,54.147z M29.058,42.145l1.342-1.959c0.749-1.093-0.902-2.222-1.65-1.13l-1.342,1.959
			C26.66,42.108,28.311,43.237,29.058,42.145z"/>
		<path class="fandom_zeven" d="M21.498,16.583l-2.354,0.316c-1.311,0.176-1.579-1.806-0.266-1.982l2.354-0.316
			C22.542,14.425,22.81,16.407,21.498,16.583z M16.797,11.095l-1.196,2.052c-0.667,1.144,1.062,2.15,1.728,1.007l1.196-2.052
			C19.192,10.958,17.463,9.953,16.797,11.095z M45.372,31.736l-1.733-1.624c-0.967-0.906-2.334,0.554-1.367,1.46l1.733,1.624
			C44.972,34.101,46.339,32.642,45.372,31.736z M20.249,53.099l-1.548-1.801c-0.864-1.004-2.379,0.301-1.517,1.304l1.548,1.801
			C19.596,55.408,21.112,54.102,20.249,53.099z"/>
		<path class="fandom_dertien" d="M15.406,20.377l-2.214,0.86c-1.233,0.479-1.959-1.385-0.724-1.864l2.214-0.86
			C15.915,18.034,16.641,19.898,15.406,20.377z M42.476,26.367l-2.375-0.03c-1.325-0.017-1.348,1.983-0.025,2l2.375,0.03
			C43.775,28.384,43.798,26.384,42.476,26.367z M16.488,45.164l-2.087-1.134c-1.164-0.633-2.117,1.125-0.955,1.757l2.087,1.134
			C16.696,47.554,17.65,45.796,16.488,45.164z"/>
		<path class="fandom_acht" d="M26.734,4.312l-0.85,2.218c-0.474,1.235-2.342,0.521-1.867-0.716l0.85-2.218
			C25.34,2.361,27.208,3.075,26.734,4.312z M54.867,35.421l-2.372,0.117c-1.323,0.065-1.223,2.063,0.099,1.998l2.372-0.117
			C56.288,37.353,56.188,35.356,54.867,35.421z M32.559,47.326l-0.328-2.352c-0.183-1.312-2.163-1.034-1.981,0.276l0.328,2.352
			C30.761,48.914,32.741,48.636,32.559,47.326z M21.963,40.079l-1.341-1.96c-0.748-1.093-2.398,0.038-1.651,1.129l1.341,1.96
			C21.06,42.301,22.71,41.17,21.963,40.079z"/>
		<path class="fandom_een" d="M35.8,1.866c-2.371-1.451-6.628,0.769-9.005,2.198c-0.009,0.083-0.029,0.166-0.06,0.248l-0.85,2.218
			C25.435,7.7,23.666,7.133,23.982,5.92c-1.633,1.172-2.568,1.97-3.569,2.829c-0.424,0.882-0.394,1.786,1.2,2.066
			c0.367-0.336,0.751-0.676,1.163-1.017c2.739-2.269,5.328-3.665,5.781-3.117c0.791,0.955-3.942,4.982-5.122,5.883
			c-0.127,2.897,1.313,2.709,2.313,3.1c0.752-0.831,1.494-1.677,2.426-2.314c0.741-0.507,1.534-0.95,2.201-1.557
			c0.708-0.645,1.17-1.468,1.754-2.213c0.591-0.754,1.495-1.162,2.13-1.871c0.568-0.635,0.707-1.677,1.204-2.387
			c0.353-0.504,0.903-1.176,0.92-1.835C36.396,2.931,36.304,2.174,35.8,1.866z M29.833,9.82l-0.962,2.171
			c-0.536,1.209-2.365,0.401-1.828-0.81l0.962-2.171C28.54,7.8,30.37,8.608,29.833,9.82z M33.527,4.854l-2.298,0.602
			c-1.28,0.335-1.788-1.599-0.507-1.935l2.298-0.602C34.3,2.584,34.809,4.519,33.527,4.854z M52.505,32.078
			c-0.304,0.393-0.86,0.507-1.299,0.247l-2.044-1.209c-0.453-0.268-0.617-0.837-0.388-1.301c-0.086-0.045-0.172-0.09-0.258-0.135
			c-0.75-0.061-1.389,0.203-1.143,1.403c0.343,0.168,0.694,0.347,1.054,0.545c2.39,1.319,4.114,2.766,3.849,3.234
			c-0.463,0.817-4.819-1.526-5.643-2.024c-2.013,0.66-1.57,1.465-1.569,2.465c0.805,0.306,1.618,0.6,2.335,1.085
			c0.57,0.386,1.109,0.825,1.731,1.131c0.659,0.325,1.378,0.428,2.074,0.639c0.705,0.213,1.25,0.74,1.935,0.996
			c0.613,0.229,1.398,0.046,2.044,0.205c0.459,0.113,1.094,0.319,1.57,0.153c0.401-0.14,0.917-0.408,0.996-0.847
			C58.177,36.305,54.462,33.434,52.505,32.078z M54.965,37.418l-2.372,0.117c-1.321,0.065-1.422-1.932-0.099-1.998l2.372-0.117
			C56.188,35.356,56.288,37.353,54.965,37.418z M30.536,37.517c-2.211-1.298-5.224-1.39-8.286-1.157
			c-0.435,0.678-0.85,1.678-1.208,2.373l0.921,1.346c0.747,1.092-0.903,2.223-1.651,1.129l-0.233-0.341
			c-0.472,1.219-0.813,2.444-1,3.653c0.745-0.893,1.91-1.59,3.301-1.87c3.014-0.606,6.075,1.058,5.628,3.825
			c-0.272,1.679-1.898,3.202-4.126,3.649c-1.782,0.358-3.473-0.071-4.544-0.991c-0.07-0.06-0.137-0.122-0.202-0.186
			c0.624,3.101,2.584,5.868,6.294,7.844c5.407-0.615,8.354-4.068,9.186-9.139C35.273,43.636,34.145,39.301,30.536,37.517z
			 M27.408,41.015l1.342-1.959c0.749-1.093,2.397,0.039,1.65,1.13l-1.342,1.959C28.311,43.237,26.66,42.108,27.408,41.015z
			 M29.452,52.473l-1.685,1.673c-0.94,0.934-2.35-0.485-1.409-1.419l1.685-1.673C28.983,50.121,30.392,51.54,29.452,52.473z
			 M30.578,47.602L30.25,45.25c-0.183-1.31,1.798-1.588,1.981-0.276l0.328,2.352C32.741,48.636,30.761,48.914,30.578,47.602z"/>
		<path class="fandom_twee" d="M28.558,6.681c-0.454-0.548-3.042,0.848-5.781,3.117c-0.412,0.342-0.796,0.681-1.163,1.017
			c-1.604-0.282-1.626-1.195-1.194-2.082c-0.756,0.648-2.225,2.02-2.225,2.02c0.454,0.286,0.603,0.882,0.33,1.349l-1.196,2.052
			c-0.497,0.852-1.809,0.54-1.863-0.45c-0.607,0.746-1.174,1.52-1.688,2.326c-0.664,1.041-1.265,2.165-1.386,3.376l2.291-0.894
			c1.233-0.479,1.959,1.385,0.724,1.864l-2.214,0.86c-0.175,0.068-0.358,0.083-0.531,0.054c0.439,0.746,1.494,0.923,2.231,0.381
			c0.763-0.561,0.467-0.833,1.534-0.771c1.903,0.111,3.281-1.254,4.634-2.386c1.478-1.236,3.048-1.172,4.687-2.851
			c-1-0.39-2.441-0.202-2.313-3.1C24.615,11.664,29.349,7.637,28.558,6.681z M21.498,16.583l-2.354,0.316
			c-1.311,0.176-1.579-1.806-0.266-1.982l2.354-0.316C22.542,14.425,22.811,16.406,21.498,16.583z M48.427,31.627
			c-0.36-0.198-0.71-0.377-1.054-0.545c-0.248-1.206,0.4-1.468,1.155-1.402c-1.617-0.857-3.316-1.638-5.072-2.192
			c-0.06,0.501-0.489,0.885-1.005,0.879l-2.375-0.03c-0.799-0.01-1.251-0.898-0.823-1.549c-0.604,0.062-1.268,0.278-1.727,0.656
			c-0.594,0.49-0.457,1.416,0.2,1.829c0.612,0.385,0.722,0.089,0.981,0.873c0.453,1.371,1.816,1.974,3.005,2.622
			c1.298,0.708,1.992,2.075,3.352,2.534c-0.001-1-0.442-1.806,1.569-2.465c0.824,0.498,5.181,2.841,5.643,2.024
			C52.541,34.394,50.817,32.946,48.427,31.627z M44.005,33.195l-1.733-1.624c-0.965-0.904,0.398-2.367,1.367-1.46l1.733,1.624
			C46.339,32.642,44.972,34.101,44.005,33.195z M20.078,40.866l-1.107-1.619c-0.748-1.094,0.904-2.221,1.651-1.129l0.42,0.614
			c0.358-0.696,1.208-2.373,1.208-2.373c-7.702,0.605-12.635,5.883-10.543,13.636c1.597,5.919,7.633,7.489,13.724,6.797
			C18.667,53.19,17.718,46.958,20.078,40.866z M15.532,46.921l-2.087-1.134c-1.162-0.632-0.208-2.39,0.955-1.757l2.087,1.134
			C17.65,45.796,16.696,47.554,15.532,46.921z M18.733,54.403l-1.548-1.801c-0.862-1.003,0.653-2.308,1.517-1.304l1.548,1.801
			C21.112,54.102,19.596,55.408,18.733,54.403z"/>
	</g>
</g>
</svg>