<svg version="1.1" id="Uploaded to svgrepo.com" xmlns="http://www.w3.org/2000/svg" xmlns:xlink="http://www.w3.org/1999/xlink" x="0px" y="0px"
	 width="154px" height="154px" viewBox="0 0 64 64" style="enable-background:new 0 0 64 64;" xml:space="preserve">
<style type="text/css">
	.fandom_drie{fill:#BE9148;}
	.fandom_vier{fill:#FFC865;}
	.fandom_vijftien{fill:#3A3A3A;}
	.fandom_zestien{fill:#4D4D4D;}
	.fandom_zeventien{fill:#666666;}
	.st0{fill:#6BC4D2;}
	.st1{fill:#508D9B;}
	.st2{fill:#4B322A;}
	.st3{fill:#EFEAE0;}
	.st4{fill:#BE5652;}
	.st5{fill:#FF786E;}
	.st6{fill:#644638;}
	.st7{fill:#8579A3;}
	.st8{fill:#685683;}
	.st9{fill:#CCCCCC;}
	.st10{fill:#AA9991;}
	.st11{fill:#00B3AA;}
	.st12{fill:#018273;}
	.st13{fill:#808080;}
	.st14{fill:#FFFAFA;}
</style>
<g>
	<g>
		<path class="fandom_vier" d="M32,7C18.193,7,7,18.193,7,32h50C57,18.193,45.807,7,32,7z"/>
		<path class="fandom_drie" d="M32,57c13.807,0,25-11.193,25-25H7C7,45.807,18.193,57,32,57z"/>
	</g>
	<g>
		<path class="fandom_zeventien" d="M40.51,17.583c-3.948-0.034-8.978,5.98-8.978,5.98l-20.099,7.108
			c-3.291,1.407-7.113,4.224-7.933,7.944c0.001,0.002,0.001,0.003,0.002,0.005c0.307,0.762,0.739,1.428,1.283,2.061
			c0.557-4.004,4.402-7.082,8.064-8.802c0,0,16.852-5.974,16.854-5.98c-0.159,0.586,0.389,0.725,0.389,0.725
			s0.939,0.427,2.196,0.928c4.481-6.646,9.393-8.658,11.897-9.303C43.094,17.903,41.96,17.596,40.51,17.583z M46.977,19.878
			c0.997,0.304,1.828,0.756,2.54,1.101c-0.743,0.58-1.44,1.253-2.058,2.034c-0.023-0.098-0.043-0.159-0.043-0.159
			s-0.288-1.417-1.34-2.783c0,0.001,0.001,0.001,0.001,0.001C46.376,19.995,46.676,19.93,46.977,19.878z M16.417,41.958
			c-0.972,1.099-1.333,2.906-2.926,3.282c-1.045,0.247-2.175-0.128-3.087-0.632c0.483-3.749,2.67-5.814,5.889-7.421l30.001-12.37
			c-0.605,1.167-1.047,2.515-1.256,4.075l-23.205,9.442C19.843,39.139,17.847,40.342,16.417,41.958z"/>
		<path class="fandom_vijftien" d="M61.261,17.801c0.441-0.062-0.026-0.587-1.297-0.446c0,0-8.208,0.223-12.505,5.658
			c-0.259-1.113-0.754-2.125-1.381-2.94c0.302-0.079,0.606-0.145,0.911-0.197c-0.082-0.531-0.093-1.106,0.369-1.408
			c0.951-0.621-0.133-0.829,0.448-1.678c0.204-0.297,0.706-0.109,0.796-0.51c0.078-0.35-0.683-1.392-0.058-1.479
			c2.297-0.323-9.503-1.696-14.484,6.191c1.972-1.79,4.339-3.408,6.452-3.408c1.449,0,2.584,0.319,3.677,0.667
			c-5.048,1.3-9.008,5.017-11.897,9.303c-1.258-0.501-2.196-0.928-2.196-0.928s-0.542-0.132-0.4-0.702L12.85,31.88
			c-3.654,1.716-7.507,4.793-8.064,8.802c-0.7-1-0.809-0.905-1.289-2.074c-0.256,2.054-0.363,3.794,1.319,5.268
			c0,0,5.142,3.977,7.662,3.971c1.195-0.019,2.418-0.43,3.552-0.769l6.509-2.68c-0.025,0.15-0.05,0.301-0.052,0.453
			c-0.026,1.621,1.284,2.631,2.926,2.255s2.995-2.008,3.021-3.644c0.008-0.523-0.132-0.972-0.363-1.342l23.077-9.503
			c0.423,0.976,1.476,1.493,2.725,1.207c1.618-0.371,2.948-1.959,3.013-3.57l2.876-1.184c0.985-1.154-0.368-3.291-0.82-4.393
			c-0.163-0.399,0.108-0.715,0.367-0.982c0.447-0.463,0.335-0.646,0.345-1.226c-0.005-0.875,0.868-1.002,0.78-1.837
			c-0.032-0.306-0.101-0.8,0.244-0.97c0.247-0.123,0.702-0.098,0.644-0.505C61.279,18.864,60.688,17.882,61.261,17.801z
			 M43.736,33.955l-7.426,3.247c-1.096,0.416-1.89-1.069-0.935-1.75l6.991-3.645c0.384-0.273,0.906-0.241,1.254,0.076l0.436,0.398
			C44.606,32.784,44.433,33.69,43.736,33.955z M45.038,28.891l-23.205,9.442c-1.99,0.806-3.986,2.009-5.416,3.624
			c-0.972,1.099-1.333,2.906-2.926,3.282c-1.045,0.247-2.175-0.128-3.087-0.632c0.483-3.75,2.67-5.814,5.889-7.421l30.001-12.37
			C45.689,25.983,45.247,27.332,45.038,28.891z"/>
		<path class="fandom_zestien" d="M43.62,31.884l0.436,0.398c0.55,0.502,0.378,1.409-0.319,1.673l-7.426,3.247
			c-1.097,0.416-1.89-1.069-0.935-1.75l6.991-3.645C42.75,31.535,43.272,31.566,43.62,31.884z M53.967,27.927
			c-1.643,0.391-2.995,2.022-3.021,3.644c-0.026,1.623,1.286,2.631,2.926,2.254c1.642-0.376,2.995-2.008,3.021-3.644
			C56.92,28.546,55.611,27.536,53.967,27.927z M58.893,30.213c-0.041,2.54-2.05,4.982-4.574,5.561
			c-2.926,0.671-5.42-1.334-5.373-4.236c0.041-2.518,2.043-4.959,4.558-5.557C56.418,25.288,58.941,27.274,58.893,30.213z
			 M25.508,41.207c-1.643,0.391-2.995,2.022-3.021,3.644c-0.026,1.623,1.286,2.631,2.926,2.254c1.642-0.376,2.995-2.008,3.021-3.644
			C28.46,41.827,27.151,40.817,25.508,41.207z M30.434,43.494c-0.041,2.54-2.05,4.982-4.574,5.561
			c-2.926,0.671-5.42-1.334-5.373-4.236c0.041-2.518,2.043-4.959,4.558-5.557C27.958,38.569,30.481,40.555,30.434,43.494z"/>
	</g>
</g>
</svg>