<svg version="1.1" id="Uploaded to svgrepo.com" xmlns="http://www.w3.org/2000/svg" xmlns:xlink="http://www.w3.org/1999/xlink" x="0px" y="0px"
	 width="154px" height="154px" viewBox="0 0 64 64" style="enable-background:new 0 0 64 64;" xml:space="preserve">
<style type="text/css">
	.fandom_drie{fill:#BE9148;}
	.fandom_vier{fill:#FFC865;}
	.fandom_vijftien{fill:#3A3A3A;}
	.fandom_zestien{fill:#4D4D4D;}
	.fandom_achttien{fill:#808080;}
	.st0{fill:#6BC4D2;}
	.st1{fill:#508D9B;}
	.st2{fill:#4B322A;}
	.st3{fill:#EFEAE0;}
	.st4{fill:#BE5652;}
	.st5{fill:#FF786E;}
	.st6{fill:#644638;}
	.st7{fill:#8579A3;}
	.st8{fill:#685683;}
	.st9{fill:#CCCCCC;}
	.st10{fill:#AA9991;}
	.st11{fill:#00B3AA;}
	.st12{fill:#018273;}
	.st13{fill:#666666;}
	.st14{fill:#FFFAFA;}
</style>
<g>
	<g>
		<path class="fandom_vier" d="M32,7C18.193,7,7,18.193,7,32h50C57,18.193,45.807,7,32,7z"/>
		<path class="fandom_drie" d="M32,57c13.807,0,25-11.193,25-25H7C7,45.807,18.193,57,32,57z"/>
	</g>
	<g>
		<path class="fandom_vijftien" d="M51.584,21.192l-2.32,1.4l-5.463,8.63l-0.342-0.69l5.6-11.686l-0.045-2.71l-2.14,1.662
			l-4.78,9.974l-0.477-0.965l4.239-13.298l-0.419-2.677l-1.891,1.941l-3.477,10.907l-0.529-1.069l2.429-13.202l-0.753-2.603
			l-1.63,2.164l-1.842,10.01l-1.061-2.144l1.108-11.226L36.823,3.08l-1.444,2.293l-0.773,7.833c-0.346-0.386-0.767-0.751-1.25-0.977
			V4.236l-1.212-2.424l-1.212,2.424v7.879c-0.494,0.163-0.931,0.481-1.3,0.844l-0.749-7.586L27.438,3.08L26.47,5.611l1.065,10.787
			l-1.088,2.199l-1.771-9.626l-1.63-2.164l-0.753,2.603l2.358,12.818l-0.561,1.133l-3.375-10.586l-1.891-1.941l-0.419,2.677
			l4.137,12.977l-0.503,1.018l-4.651-9.706l-2.14-1.662l-0.045,2.71l5.472,11.418l-0.36,0.727l-5.317-8.399l-2.32-1.4l0.272,2.696
			l6.106,9.646l-1.425,2.88c-0.138,0.279-0.168,0.602-0.083,0.902l2.276,20.794C19.972,58.638,20.441,59,20.974,59h22.053
			c0.533,0,1.002-0.362,1.15-0.888l2.276-20.794c0.085-0.301,0.055-0.623-0.083-0.902l-1.311-2.649l6.253-9.877L51.584,21.192z"/>
		<path class="fandom_zestien" d="M44.877,37h-2.083l-2.178-4.362C40.423,32.245,40.043,32,39.629,32h-2.017l2.194-4.201
			l1.712,0.894l0.596-1.141l-1.712-0.894l0.894-1.712c-0.366-0.191,0.208,0.122,0.549-0.53c0.226-0.433,0.059-0.968-0.375-1.195
			c-0.338-0.177-0.737-0.113-1.004,0.128l-1.253-0.426l0.622-1.828c-0.392-0.134,0.225,0.089,0.462-0.608
			c0.158-0.463-0.09-0.966-0.553-1.123s-0.966,0.09-1.123,0.553c-0.237,0.697,0.387,0.897-0.005,0.763l-0.622,1.828l-1.828-0.622
			l-0.415,1.219l1.828,0.622L34.764,32h-1.459l2.205-11.329l1.896,0.369l0.246-1.264l-1.896-0.369l0.369-1.896
			c-0.407-0.079,0.235,0.058,0.375-0.665c0.093-0.48-0.22-0.945-0.7-1.038c-0.48-0.093-0.945,0.22-1.038,0.7
			c-0.141,0.723,0.505,0.836,0.099,0.757l-0.369,1.896l-1.896-0.369l-0.246,1.264l1.896,0.369l-1.989,10.216l-0.775-2.231
			l0.833-10.27l1.925,0.156l0.104-1.283l-1.925-0.156l0.156-1.925c-0.413-0.033,0.24,0.031,0.299-0.702
			c0.039-0.487-0.324-0.914-0.811-0.954c-0.487-0.039-0.914,0.324-0.954,0.811c-0.059,0.734,0.593,0.775,0.182,0.741l-0.156,1.925
			l-1.925-0.156l-0.104,1.283l1.925,0.156l-0.597,7.358l-1.67-4.809l1.825-0.634l-0.422-1.216l-1.825,0.634l-0.634-1.825
			c-0.391,0.136,0.232-0.068-0.01-0.763c-0.16-0.462-0.665-0.706-1.127-0.546c-0.462,0.16-0.706,0.665-0.546,1.127
			c0.241,0.695,0.857,0.469,0.466,0.605l0.634,1.825l-1.825,0.634l0.286,0.825l-0.891,0.391l-0.776-1.769
			c-0.379,0.166,0.226-0.086-0.07-0.76c-0.196-0.448-0.719-0.651-1.166-0.455c-0.448,0.196-0.651,0.719-0.455,1.166
			c0.296,0.674,0.891,0.4,0.512,0.566l0.776,1.769l-1.769,0.776l0.517,1.179l1.769-0.776L27.839,32h-2.357l-3.097-4.999l1.642-1.017
			l-0.678-1.095l-1.642,1.017l-1.017-1.642c-0.352,0.218,0.212-0.117-0.176-0.743c-0.258-0.416-0.803-0.544-1.219-0.286
			c-0.416,0.258-0.544,0.803-0.286,1.219c0.388,0.626,0.939,0.271,0.587,0.489l1.017,1.642l-1.642,1.017l0.678,1.095l1.642-1.017
			L23.968,32c-0.544,0-0.959,0.174-1.182,0.707l-1.801,4.299C20.895,36.996,19.214,37,19.123,37C18.503,37,18,37.536,18,38.197
			v19.605C18,58.464,18.503,59,19.123,59h1.754C21.497,59,22,58.464,22,57.803V42h20v15.803C42,58.464,42.503,59,43.123,59h1.754
			C45.497,59,46,58.464,46,57.803V38.197C46,37.536,45.497,37,44.877,37z M29.901,32h-0.656l-4.029-9.182l1.769-0.776l-0.32-0.729
			l0.885-0.307l2.628,7.569L29.901,32z M38.8,24.142l1.243,0.423l-0.782,1.496l-0.947-0.495L38.8,24.142z M36.125,32l1.77-5.2
			l0.771,0.403L36.16,32H36.125z"/>
		<path class="fandom_achttien" d="M44.934,42.598l2.126,0.697l0.464-1.417l-2.126-0.697l0.697-2.126
			c-0.456-0.149,0.261,0.1,0.527-0.71c0.176-0.538-0.117-1.117-0.655-1.294c-0.538-0.176-1.117,0.117-1.294,0.655
			c-0.266,0.81,0.459,1.033,0.005,0.884l-0.697,2.126l-2.126-0.697l-0.13,0.398l-1.519,0.647l-0.876-2.058
			c-0.441,0.188,0.263-0.097-0.071-0.881c-0.222-0.521-0.824-0.764-1.345-0.542c-0.521,0.222-0.763,0.824-0.542,1.345
			c0.334,0.785,1.026,0.475,0.586,0.662l0.876,2.058l-2.058,0.876l0.584,1.372l2.058-0.876l2.152,5.054l-3.394,10.357l1.417,0.464
			l2.863-8.738l3.68,8.643l1.372-0.584l-4.347-10.21L44.934,42.598z M40.791,42.436l1.588-0.676l1.139,0.373l-1.242,3.79
			L40.791,42.436z M23.423,42.598l2.126,0.697l0.464-1.417l-2.126-0.697l0.697-2.126c-0.456-0.149,0.261,0.1,0.527-0.71
			c0.176-0.538-0.117-1.117-0.655-1.294c-0.538-0.176-1.117,0.117-1.294,0.655c-0.266,0.81,0.459,1.033,0.005,0.884l-0.697,2.126
			l-2.126-0.697l-0.13,0.398l-1.519,0.647l-0.876-2.058c-0.441,0.188,0.263-0.097-0.071-0.881c-0.222-0.521-0.824-0.764-1.345-0.542
			c-0.521,0.222-0.763,0.824-0.542,1.345c0.334,0.785,1.026,0.475,0.586,0.662l0.876,2.058l-2.058,0.876l0.584,1.372l2.058-0.876
			l2.152,5.054l-3.394,10.357l1.417,0.464l2.863-8.738l3.68,8.643l1.372-0.584l-4.347-10.21L23.423,42.598z M19.279,42.436
			l1.588-0.676l1.139,0.373l-1.242,3.79L19.279,42.436z"/>
	</g>
</g>
</svg>