<svg version="1.1" id="Uploaded to svgrepo.com" xmlns="http://www.w3.org/2000/svg" xmlns:xlink="http://www.w3.org/1999/xlink" x="0px" y="0px"
	 width="154px" height="154px" viewBox="0 0 64 64" style="enable-background:new 0 0 64 64;" xml:space="preserve">
<style type="text/css">
	.fandom_drie{fill:#BE9148;}
	.fandom_vier{fill:#FFC865;}
	.fandom_vijftien{fill:#3A3A3A;}
	.fandom_zestien{fill:#4D4D4D;}
	.st0{fill:#FF786E;}
	.st1{fill:#BE5652;}
	.st2{fill:#EFEAE0;}
	.st3{fill:#AA9991;}
	.st4{fill:#FFFAFA;}
	.st5{fill:#644638;}
	.st6{fill:#6BC4D2;}
	.st7{fill:#508D9B;}
	.st8{fill:#4B322A;}
	.st9{fill:#8579A3;}
	.st10{fill:#685683;}
	.st11{fill:#808080;}
	.st12{fill:#CCCCCC;}
	.st13{fill:#666666;}
	.st14{fill:#018273;}
	.st15{fill:#00B3AA;}
</style>
<g>
	<g>
		<path class="fandom_vier" d="M32,7C18.193,7,7,18.193,7,32h50C57,18.193,45.807,7,32,7z"/>
		<path class="fandom_drie" d="M32,57c13.807,0,25-11.193,25-25H7C7,45.807,18.193,57,32,57z"/>
	</g>
	<g>
		<path class="fandom_zestien" d="M13.76,27.136c-0.251,1.864-0.546,3.714-0.824,5.584c-1.226,8.239-0.368,8.216-1.613,11.298
			c-0.232,0.574-0.464,1.148-0.696,1.723c-0.114,0.281-0.279,0.602-0.103,0.901c0.146,0.249,0.422,0.432,0.747,0.577
			c-0.161,0.905-0.077,1.957-0.29,2.717c-0.071,0.255,0.086,0.484,0.322,0.567c0.764,0.268,3.75,0.756,4.323,0.183
			c0.312-0.312,0.214-0.887,0.214-1.273c0.001-0.487,0.054-0.944,0.023-1.446c0.393-0.016,0.753-0.076,1.014-0.229
			c0.644-0.377,0.417-1.852,0.408-2.542c2.638-5.716,1.319-12.444,3.268-18.032c0.23,7.921-0.063,15.485-1.431,23.219
			c-0.213,1.204,0.501,2.282,1.779,2.335c7.701,0.316,16.465,1.157,23.592-1.436c0.913-0.332,1.612-1.254,1.288-2.269
			c-2.635-8.252-3.608-18.842-2.323-25.325c0.457,1.807,1.31,3.61,1.257,5.49c-0.183,6.41,0.912,4.078,1.222,10.785
			c0.051,1.103,0.831,1.984,0.962,3.066c0.168,1.392,0.24,2.812,0.227,4.216c-0.001,0.155,0.087,0.326,0.228,0.398
			c0.237,0.121,0.493,0.185,0.756,0.229c-0.024-0.004-0.084,0.531-0.119,1.067C47.951,49.514,48.411,50,48.987,50h2.866
			c0.607,0,1.073-0.536,0.991-1.136l-0.156-1.134c0.141-0.046,0.28-0.1,0.418-0.166c0.238-0.114,0.269-0.42,0.165-0.631
			c-0.764-1.558,0.246-3.943,0.282-7.829c0.042-4.539-0.878-9.338-1.861-13.774c-0.886-3.999-1.293-8.931-1.562-11.618
			c-0.183-1.83-0.497-3.781-2.063-4.933c-4.558-3.355-7.261-2.92-9.994-4.217c-0.72-0.341-1.162-0.842-1.616-1.491
			C36.07,2.52,35.685,2.183,35,2c0,0-4.989,0-5,0c-0.482,0.135-1.001,0.14-1.146,0.706c-0.343,1.28-0.999,1.971-2.337,2.201
			c-1.725,0.297-10.703,1.07-11.904,10.54C14.221,18.542,14.68,20.308,13.76,27.136z"/>
		<path class="fandom_vijftien" d="M38.093,44.043c0.93,0.015,1.346,1.175,0.629,1.767c-3.274,2.708-8.939,7.171-9.714,7.244
			c-2.783-0.071-5.529-0.23-8.11-0.335c-1.277-0.052-1.991-1.131-1.779-2.335c0.547-3.091,0.915-6.115,1.152-9.112
			c0.361-4.557,0.413-9.498,0.279-14.107c-1.949,5.588-0.631,12.316-3.268,18.032c0.01,0.69,0.236,2.165-0.408,2.542
			c-0.923,0.541-2.375-0.21-2.745,0.983c-0.085,0.273-0.177,1.924-0.198,2.21c-0.872-0.061-1.893-0.17-2.631-0.429
			c-0.236-0.083-0.393-0.313-0.322-0.567c0.213-0.76,0.13-1.812,0.29-2.717c-0.325-0.145-0.601-0.328-0.747-0.577
			c-0.175-0.299-0.01-0.62,0.103-0.901c0.232-0.574,0.464-1.148,0.696-1.723c0.84,0.869,2.536,1.123,3.537,0.646
			c0.189-0.09,0.257-0.332,0.212-0.521c-0.233-0.983-1.946-2.178,0.195-2.975c0.24-0.089,0.387-0.307,0.322-0.567
			c-0.114-0.461-0.16-0.512-0.469-0.877c-0.833-0.986,0.309-1.321,0.842-1.978c0.125-0.154,0.15-0.359,0.055-0.533
			c-0.561-1.031-2.62-2.749-3.08-4.492c0.278-1.87,0.573-3.72,0.824-5.584c0.741,1.536,1.807,2.769,3.175,3.341
			c0.348,0.145,0.636-0.264,0.567-0.567c-1.049-4.635-2.287-9.271-2.228-14.059c0.005-0.388-0.387-0.523-0.661-0.404
			c1.201-9.47,10.179-10.243,11.904-10.54c1.338-0.23,1.994-0.921,2.337-2.201C28.999,2.14,29.518,2.135,30,2h3
			c-0.022,1,1.789,3.298-1.923,2.943c-0.642-0.006-1.795-0.248-1.219,0.516c1.026,0.367,2.03,0.201,3.085,0.436
			c0.672,0.15,0.195,0.78-0.778,5.121c-0.336,1.5-1.043,3.249-0.476,4.777c0.797,2.147,2.527,2.44,4.474,5.668
			c0.947,1.571,2.765,5.553,3.121,7.296c0.99,4.849-3.751,7.454-5.254,9.177c-0.372,0.427-0.13,0.949,1.292,0.672
			c2.777-0.541,4.228-1.491,4.586-0.706c0.216,0.474-2.473,4.051-5.209,5.106c-0.499,0.192-0.4,0.847,0.123,0.906
			C35.117,43.946,36.483,44.017,38.093,44.043z M53.552,39.104c0.042-4.539-0.878-9.338-1.861-13.774
			c-0.845-3.812-1.032-6.426-1.032-6.426c-0.905,1.137-2.053,2.076-3.424,2.783c-0.475,0.245-0.903-0.328-0.559-0.724
			c0.99-1.14,1.901-4.82,2.332-7.338c0.09-0.528-0.605-0.81-0.905-0.366c-1.733,2.56-4.629,7.355-4.648,10.43
			c0.457,1.807,1.31,3.61,1.257,5.49c-0.183,6.41,0.912,4.078,1.222,10.785c0.051,1.103,0.831,1.984,0.962,3.066
			c0.168,1.392,0.24,2.812,0.227,4.216c-0.001,0.155,0.087,0.326,0.228,0.398c0.237,0.121,0.493,0.185,0.756,0.229
			c-0.024-0.004-0.084,0.531-0.119,1.067C47.951,49.514,48.411,50,48.987,50l2.866,0c0.607,0,1.073-0.536,0.991-1.136l-0.156-1.134
			c0.141-0.046,0.28-0.1,0.418-0.166c0.238-0.114,0.269-0.42,0.165-0.631C52.506,45.375,53.517,42.989,53.552,39.104z"/>
	</g>
</g>
</svg>